<?xml version="1.0" encoding="utf-8"?>
<!DOCTYPE svg PUBLIC "-//W3C//DTD SVG 1.1//EN" "http://www.w3.org/Graphics/SVG/1.1/DTD/svg11.dtd" [
]>
<svg version="1.1"
	 xmlns="http://www.w3.org/2000/svg" xmlns:xlink="http://www.w3.org/1999/xlink" x="0px" y="0px" width="260px" height="66px" viewBox="0 0 260 66" enable-background="new 0 0 260 66"
	 xml:space="preserve">
<g><g>
	 <circle fill="#1A171B" cx="32.455" cy="32.455" r="32.455"/>
<path fill="#FFFFFF" d="M46.644,12.009c-3.297,0.115-6.175,1.932-8.317,4.446c-2.372,2.756-3.95,6.025-5.087,9.362
	c-2.034-1.667-3.603-3.825-6.866-4.766c-2.522-0.724-5.171-0.425-7.607,1.39c-1.154,0.862-1.949,2.165-2.327,3.39
	c-0.979,3.183,1.029,6.016,1.941,7.033l1.994,2.137c0.411,0.419,1.401,1.512,0.917,3.079c-0.523,1.704-2.577,2.808-4.684,2.157
	c-0.941-0.287-2.293-0.988-1.99-1.975c0.125-0.404,0.414-0.707,0.569-1.056c0.142-0.3,0.21-0.524,0.253-0.657
	c0.385-1.257-0.141-2.892-1.487-3.307c-1.256-0.385-2.541-0.08-3.039,1.537c-0.565,1.837,0.314,5.171,5.023,6.623
	c5.517,1.695,10.184-1.309,10.846-5.228c0.417-2.454-0.691-4.277-2.721-6.622l-1.654-1.829c-1.002-1.001-1.346-2.707-0.309-4.018
	c0.875-1.106,2.121-1.578,4.162-1.023c2.979,0.809,4.307,2.876,6.523,4.543c-0.915,3.001-1.513,6.013-2.054,8.713l-0.33,2.015
	c-1.584,8.308-2.793,12.87-5.935,15.489c-0.633,0.449-1.538,1.123-2.902,1.171c-0.715,0.022-0.946-0.47-0.956-0.685
	c-0.017-0.502,0.406-0.731,0.687-0.957c0.42-0.229,1.055-0.609,1.012-1.826c-0.046-1.438-1.237-2.686-2.959-2.629
	c-1.29,0.045-3.256,1.258-3.182,3.48c0.077,2.295,2.216,4.016,5.441,3.906c1.724-0.059,5.574-0.762,9.368-5.271
	c4.416-5.17,5.651-11.097,6.58-15.435l1.037-5.727c0.576,0.069,1.192,0.115,1.862,0.131c5.5,0.116,8.251-2.733,8.292-4.805
	c0.027-1.254-0.823-2.488-2.013-2.46c-0.852,0.024-1.922,0.591-2.179,1.769c-0.251,1.156,1.75,2.199,0.186,3.212
	c-1.111,0.719-3.103,1.226-5.908,0.814l0.51-2.819c1.041-5.346,2.325-11.922,7.196-12.082c0.355-0.018,1.654,0.016,1.684,0.875
	c0.009,0.287-0.062,0.36-0.398,1.017c-0.342,0.512-0.471,0.948-0.455,1.449c0.047,1.365,1.085,2.262,2.586,2.208
	c2.01-0.065,2.588-2.022,2.555-3.027C52.428,13.393,49.939,11.901,46.644,12.009z"/>
<path fill="#1A171B" d="M196.782,23.324c7.479,0,12.499,5.407,12.499,12.887c0,7.048-5.116,12.886-12.499,12.886
	c-7.435,0-12.55-5.838-12.55-12.886C184.232,28.731,189.25,23.324,196.782,23.324z M196.782,45.433c5.306,0,7.671-4.826,7.671-9.222
	c0-4.68-2.848-9.217-7.671-9.217c-4.878,0-7.724,4.537-7.724,9.217C189.059,40.604,191.423,45.433,196.782,45.433z"/>
<path fill="#1A171B" d="M183.609,25.615v-1.713h-6.518v-2.341c0-3.33,0.483-5.842,4.391-5.842c0.072,0,0.149,0.005,0.225,0.008
	c0.008,0,0.007-0.012,0.016-0.012c1.086,0.08,1.987-0.804,2.049-1.887l0.08-1.486c-0.916-0.146-1.885-0.29-3.039-0.29
	c-6.709,0-8.256,3.91-8.256,9.896v1.955h-5.795v1.913c0.149,0.99,0.996,1.752,2.031,1.752c0.006,0,0.01,0.005,0.016,0.005h3.748
	v20.947h2.5c0.004,0,0.004-0.002,0.006-0.002c1.041,0,1.893-0.778,2.03-1.778V27.573h4.538
	C182.701,27.538,183.561,26.683,183.609,25.615z"/>
<path fill="#1A171B" d="M123.175,23.902c-0.008,0-0.013,0.006-0.024,0.006c-0.956,0-1.882,0.657-2.286,1.545l-6.244,18.819h-0.096
	l-6.106-18.81c-0.399-0.893-1.329-1.555-2.291-1.555c-0.011,0-0.015-0.006-0.024-0.006h-3.164l8.351,22.977
	c0.291,0.821,0.871,2.077,0.871,2.606c0,0.482-1.353,6.08-5.409,6.08c-0.1,0-0.201-0.01-0.3-0.018
	c-1.034-0.057-1.815,0.665-1.989,1.779l-0.124,1.57c0.82,0.145,1.645,0.338,3.092,0.338c5.984,0,7.769-5.455,9.46-10.186
	l9.073-25.149L123.175,23.902L123.175,23.902z"/>
<path fill="#1A171B" d="M94.332,28.902c-3.747-1.917-7.847-3.218-7.918-7.076c0.012-4.097,3.776-5.172,6.677-5.169
	c0.012-0.002,0.024-0.002,0.031-0.002c1.26,0,2.268,0.125,3.251,0.34c0.013,0,0.011-0.016,0.027-0.016
	c1.039,0.076,1.911-0.737,2.034-1.762l0.083-1.488c-1.902-0.473-3.889-0.712-5.619-0.712c-6.309,0.039-10.992,3.213-11.007,9.268
	c0.009,5.296,3.578,7.349,7.416,9.207c3.764,1.81,7.888,3.305,7.924,7.674c-0.023,4.56-4.423,6.241-7.455,6.247
	c-1.773-0.006-3.698-0.449-5.32-0.96c-1.017-0.168-1.851,0.729-1.982,1.917l-0.138,1.327c2.23,0.72,4.517,1.348,6.815,1.348
	c0,0,0.002,0,0.006,0c0.005,0,0.012,0,0.021,0c7.065-0.051,12.557-2.869,12.578-10.185C101.745,33.215,98.152,30.844,94.332,28.902z
	"/>
<path fill="#1A171B" d="M162.955,48.519c0.002,0,0.002,0,0.006,0c0.98,0,1.796-0.688,2.004-1.604V32.737
	c0-5.358-2.267-9.413-8.546-9.413c-2.219,0-5.935,1.257-7.623,4.779c-1.306-3.331-4.149-4.779-7-4.779
	c-3.619,0-6.082,1.303-7.815,4.152h-0.1v-1.532c-0.015-1.126-0.926-2.036-2.055-2.036c-0.008,0-0.014-0.006-0.021-0.006h-2.17
	v24.617h2.456c0.005,0,0.005,0,0.007,0c1.137,0,2.059-0.922,2.059-2.06c0-0.03,0.011-0.042,0.016-0.063V36.116
	c0-4.585,1.834-9.122,6.467-9.122c3.67,0,4.396,3.811,4.396,6.853v14.674h2.49c0.002,0,0.002-0.002,0.007-0.002
	c1.073,0,1.938-0.824,2.036-1.873V36.116c0-4.585,1.836-9.122,6.469-9.122c3.667,0,4.393,3.811,4.393,6.853v14.674h2.525V48.519z"/>
<path fill="#1A171B" d="M233.068,48.519c0.005,0,0.005,0,0.008,0c1.105,0,1.998-0.873,2.049-1.965v-12.66
	c0-6.61-2.85-10.57-9.223-10.57c-3.426,0-6.705,1.691-8.059,4.491h-0.097v-1.839c0-0.001-0.004-0.001-0.004-0.006
	c0-1.141-0.921-2.061-2.058-2.061c-0.012,0-0.016-0.006-0.022-0.006h-2.312v24.617h2.493c0.001,0,0.001,0,0.007,0
	c1.078,0,1.955-0.838,2.039-1.896v-9.495c0-5.984,2.318-10.135,7.481-10.135c3.96,0.24,5.211,3.038,5.211,8.783v12.742H233.068
	L233.068,48.519z"/>
<path fill="#1A171B" d="M257.496,23.902c-0.012,0-0.014,0.006-0.025,0.006c-0.955,0-1.884,0.657-2.283,1.545l-6.242,18.819h-0.103
	l-6.104-18.81c-0.4-0.893-1.33-1.555-2.293-1.555c-0.006,0-0.014-0.006-0.021-0.006h-3.164l8.351,22.977
	c0.291,0.821,0.873,2.077,0.873,2.606c0,0.482-1.354,6.08-5.409,6.08c-0.103,0-0.201-0.01-0.302-0.018
	c-1.032-0.057-1.814,0.665-1.989,1.779l-0.122,1.57c0.82,0.145,1.645,0.338,3.091,0.338c5.983,0,7.772-5.455,9.462-10.186
	l9.074-25.149L257.496,23.902L257.496,23.902z"/>
<rect x="185.25" y="51.29" width="47.25" height="11.75"/>
<path fill="#FFFFFF" d="M187.988,59.458c0-0.27,0.091-0.488,0.272-0.656s0.409-0.252,0.683-0.252c0.277,0,0.507,0.084,0.688,0.252
	s0.272,0.387,0.272,0.656c0,0.266-0.09,0.481-0.27,0.647s-0.41,0.249-0.691,0.249c-0.277,0-0.506-0.083-0.686-0.249
	S187.988,59.724,187.988,59.458z"/>
<path fill="#FFFFFF" d="M194.023,59.042c0.313,0,0.566-0.086,0.762-0.258s0.297-0.4,0.305-0.686h1.588
	c-0.004,0.43-0.121,0.823-0.352,1.181s-0.546,0.635-0.946,0.832s-0.843,0.296-1.327,0.296c-0.906,0-1.621-0.288-2.145-0.864
	s-0.785-1.372-0.785-2.388v-0.111c0-0.977,0.26-1.756,0.779-2.338s1.232-0.873,2.139-0.873c0.793,0,1.429,0.226,1.907,0.677
	s0.722,1.052,0.729,1.802h-1.588c-0.008-0.33-0.109-0.598-0.305-0.804s-0.453-0.31-0.773-0.31c-0.395,0-0.692,0.144-0.894,0.432
	c-0.201,0.287-0.302,0.754-0.302,1.399v0.176c0,0.653,0.1,1.123,0.299,1.408C193.314,58.899,193.617,59.042,194.023,59.042z"/>
<path fill="#FFFFFF" d="M197.381,57.062c0-0.629,0.121-1.189,0.363-1.682s0.591-0.873,1.046-1.143s0.983-0.404,1.585-0.404
	c0.855,0,1.554,0.262,2.095,0.785s0.843,1.234,0.905,2.133l0.012,0.434c0,0.973-0.271,1.753-0.814,2.341s-1.271,0.882-2.186,0.882
	s-1.644-0.293-2.188-0.879s-0.817-1.383-0.817-2.391V57.062z M199.074,57.182c0,0.603,0.113,1.063,0.34,1.382
	c0.227,0.319,0.551,0.479,0.973,0.479c0.41,0,0.73-0.157,0.961-0.473c0.23-0.314,0.346-0.818,0.346-1.511
	c0-0.591-0.115-1.049-0.346-1.373c-0.23-0.325-0.555-0.487-0.973-0.487c-0.414,0-0.734,0.161-0.961,0.484
	C199.188,56.005,199.074,56.505,199.074,57.182z"/>
<path fill="#FFFFFF" d="M206.018,53.95l0.053,0.709c0.449-0.551,1.057-0.826,1.822-0.826c0.816,0,1.377,0.322,1.682,0.967
	c0.445-0.645,1.08-0.967,1.904-0.967c0.688,0,1.199,0.2,1.535,0.601s0.504,1.003,0.504,1.808v4.049h-1.699v-4.053
	c0-0.359-0.07-0.623-0.211-0.789c-0.141-0.167-0.389-0.25-0.744-0.25c-0.508,0-0.859,0.243-1.055,0.729l0.006,4.363h-1.693v-4.047
	c0-0.367-0.072-0.634-0.217-0.798c-0.145-0.165-0.391-0.247-0.738-0.247c-0.48,0-0.828,0.199-1.043,0.599v4.493h-1.693v-6.34
	H206.018z"/>
<path fill="#FFFFFF" d="M214.906,59.458c0-0.27,0.091-0.488,0.272-0.656s0.409-0.252,0.683-0.252c0.277,0,0.507,0.084,0.688,0.252
	s0.272,0.387,0.272,0.656c0,0.266-0.09,0.481-0.27,0.647s-0.41,0.249-0.691,0.249c-0.277,0-0.506-0.083-0.686-0.249
	S214.906,59.724,214.906,59.458z"/>
<path fill="#FFFFFF" d="M222.102,59.646c-0.418,0.508-0.996,0.762-1.734,0.762c-0.68,0-1.198-0.195-1.556-0.586
	s-0.54-0.963-0.548-1.717V53.95h1.693v4.101c0,0.661,0.301,0.991,0.902,0.991c0.574,0,0.969-0.199,1.184-0.599V53.95h1.699v6.34
	h-1.594L222.102,59.646z"/>
<path fill="#FFFFFF" d="M228.693,60.29c-0.078-0.152-0.135-0.342-0.17-0.568c-0.41,0.457-0.943,0.686-1.6,0.686
	c-0.621,0-1.136-0.18-1.544-0.539s-0.612-0.813-0.612-1.359c0-0.672,0.249-1.188,0.747-1.547s1.218-0.541,2.159-0.545h0.779v-0.363
	c0-0.293-0.075-0.527-0.226-0.703s-0.388-0.264-0.712-0.264c-0.285,0-0.509,0.068-0.671,0.205s-0.243,0.324-0.243,0.563h-1.693
	c0-0.367,0.113-0.707,0.34-1.02s0.547-0.558,0.961-0.735s0.879-0.267,1.395-0.267c0.781,0,1.401,0.196,1.86,0.589
	s0.688,0.944,0.688,1.655v2.748c0.004,0.602,0.088,1.057,0.252,1.365v0.1H228.693z M227.293,59.112c0.25,0,0.48-0.056,0.691-0.167
	s0.367-0.261,0.469-0.448v-1.09h-0.633c-0.848,0-1.299,0.293-1.354,0.879l-0.006,0.1c0,0.211,0.074,0.385,0.223,0.521
	S227.035,59.112,227.293,59.112z"/>
</g></g>
</svg>
